<?xml version="1.0" standalone="no"?>
<!DOCTYPE svg PUBLIC "-//W3C//DTD SVG 20010904//EN"
 "http://www.w3.org/TR/2001/REC-SVG-20010904/DTD/svg10.dtd">
<svg version="1.0" xmlns="http://www.w3.org/2000/svg"
 width="416.000000pt" height="416.000000pt" viewBox="0 0 416.000000 416.000000"
 preserveAspectRatio="xMidYMid meet">

<g transform="translate(0.000000,416.000000) scale(0.100000,-0.100000)"
fill="#000000" stroke="none">
<path d="M1946 3440 c-17 -6 -19 -15 -17 -67 2 -54 0 -61 -18 -66 -20 -5 -21
-1 -21 59 0 63 -4 70 -34 58 -12 -5 -16 -20 -16 -60 0 -47 -2 -54 -20 -54 -17
0 -20 7 -20 40 0 22 -4 40 -9 40 -11 0 -95 -90 -110 -118 l-12 -22 161 0 c153
0 160 -1 160 -20 0 -19 -8 -20 -167 -22 -166 -3 -168 -3 -171 -25 l-3 -23 171
0 c158 0 171 -1 168 -17 -3 -16 -20 -18 -171 -21 l-167 -2 0 -25 0 -25 170 0
c144 0 170 -2 170 -15 0 -13 -26 -15 -170 -15 l-170 0 0 -25 0 -25 170 0 c163
0 170 -1 170 -20 0 -19 -7 -20 -170 -20 l-170 0 0 -25 0 -25 170 0 c144 0 170
-2 170 -15 0 -13 -26 -15 -170 -15 l-170 0 0 -25 0 -25 170 0 c163 0 170 -1
170 -20 0 -19 -7 -20 -170 -20 l-170 0 0 -25 0 -25 171 0 c157 0 170 -1 167
-17 -3 -16 -20 -18 -171 -21 -159 -2 -167 -3 -167 -22 0 -19 7 -20 170 -20
163 0 170 -1 170 -20 0 -19 -7 -20 -170 -20 l-170 0 0 -25 0 -25 170 0 c163 0
170 -1 170 -20 0 -19 -7 -20 -170 -20 l-170 0 0 -40 c0 -22 -4 -40 -9 -40 -19
0 -41 -32 -41 -61 0 -32 -1 -32 -95 -29 -45 1 -53 -2 -73 -29 -26 -35 -28 -59
-7 -67 8 -4 15 -12 15 -20 0 -8 5 -14 10 -14 6 0 10 -44 10 -112 0 -161 14
-241 55 -324 71 -145 228 -244 387 -244 l48 0 0 -60 c0 -53 2 -60 20 -60 19 0
20 -7 20 -245 l0 -245 -183 0 c-196 0 -207 -3 -207 -50 0 -14 -8 -30 -20 -38
-16 -10 -20 -23 -20 -72 l0 -60 518 2 517 3 3 39 c5 54 -4 84 -27 91 -14 4
-21 17 -23 43 l-3 37 -187 3 -188 2 0 245 c0 238 1 245 20 245 18 0 20 7 20
59 l0 58 73 6 c138 10 257 79 332 192 61 92 75 153 75 322 l0 145 30 38 c17
21 30 41 30 44 0 4 -10 20 -22 37 -20 27 -28 30 -73 29 -108 -3 -105 -4 -105
40 0 37 -7 45 -32 41 -5 0 -8 19 -8 44 l0 45 -170 0 c-163 0 -170 1 -170 20 0
19 7 20 170 20 l170 0 0 25 0 25 -170 0 c-165 0 -170 1 -170 20 0 20 5 21 168
19 162 -1 167 0 170 20 3 21 0 21 -167 21 -164 0 -171 1 -171 20 0 19 7 20
170 20 l170 0 0 25 0 25 -170 0 c-163 0 -170 1 -170 20 0 19 7 20 170 20 l170
0 0 25 0 25 -170 0 c-144 0 -170 2 -170 15 0 13 26 15 170 15 l170 0 0 25 0
25 -170 0 c-163 0 -170 1 -170 20 0 19 7 20 170 20 l170 0 0 25 0 25 -170 0
c-144 0 -170 2 -170 15 0 9 9 15 23 15 12 1 87 2 167 3 142 2 145 2 148 25 l3
22 -170 0 c-164 0 -171 1 -171 20 0 19 7 20 171 20 152 0 170 2 165 16 -3 9
-6 20 -6 25 0 5 -71 9 -165 9 -158 0 -165 1 -165 20 0 19 7 20 155 20 85 0
155 3 155 8 0 20 -95 132 -112 132 -4 0 -8 -17 -8 -39 0 -30 -4 -40 -20 -44
-18 -5 -20 0 -20 53 0 44 -4 59 -16 64 -30 12 -34 6 -34 -53 0 -41 -4 -60 -14
-64 -22 -9 -26 2 -26 69 0 53 -3 62 -19 67 -28 7 -31 1 -31 -69 0 -46 -4 -63
-15 -68 -12 -4 -15 5 -16 52 -2 85 -2 87 -26 90 -22 3 -23 0 -23 -66 0 -61 -2
-70 -20 -75 -19 -5 -20 0 -20 70 0 71 -1 74 -22 71 -21 -3 -23 -9 -26 -70 -2
-38 -7 -68 -12 -68 -6 0 -13 -1 -17 -2 -5 -2 -10 29 -13 68 -5 65 -7 71 -24
64z m-98 -1107 c18 -25 15 -87 -5 -105 -28 -24 -47 -27 -80 -13 -55 23 -55
112 0 135 28 12 69 3 85 -17z m102 -28 c14 -25 28 -45 32 -45 5 0 8 23 8 50 0
28 5 50 10 50 6 0 10 -32 10 -75 0 -91 -14 -98 -57 -27 l-28 47 -3 -47 c-5
-70 -27 -63 -30 9 -3 104 16 116 58 38z m248 -19 c19 -43 26 -72 20 -75 -6 -2
-15 4 -20 13 -12 22 -67 21 -84 -1 -7 -10 -15 -15 -19 -11 -11 11 45 145 60
145 8 0 27 -32 43 -71z m82 -3 c0 -58 -3 -73 -15 -73 -12 0 -15 15 -15 73 0
59 3 74 15 74 12 0 15 -15 15 -74z m148 38 c3 -15 -3 -30 -13 -37 -16 -12 -16
-15 5 -41 31 -40 4 -44 -29 -4 -33 39 -51 40 -51 1 0 -20 -5 -30 -15 -30 -12
0 -15 14 -15 70 l0 71 58 -3 c52 -3 57 -5 60 -27z m-826 -140 c2 -26 9 -39 25
-45 19 -9 22 -19 25 -95 2 -66 9 -98 27 -135 33 -66 91 -122 160 -155 54 -25
62 -26 241 -26 182 0 186 0 241 28 31 15 76 48 99 73 59 64 83 123 88 221 4
67 7 82 22 86 12 3 20 18 25 45 5 31 11 41 30 44 44 9 46 0 42 -163 -4 -125
-9 -164 -26 -209 -40 -104 -135 -196 -235 -225 -67 -20 -152 -20 -160 0 -9 23
-241 22 -254 -1 -8 -14 -21 -16 -80 -12 -134 10 -245 88 -305 216 -31 65 -32
72 -35 226 -4 169 -2 177 43 168 19 -3 25 -11 27 -41z"/>
<path d="M1766 2324 c-19 -18 -21 -65 -4 -82 31 -31 78 -3 78 47 0 22 -25 51
-45 51 -7 0 -21 -7 -29 -16z"/>
<path d="M2142 2291 c-10 -29 -10 -31 14 -31 22 0 24 3 19 23 -12 37 -22 40
-33 8z"/>
<path d="M2340 2315 c0 -20 5 -25 24 -25 31 0 50 22 34 38 -7 7 -22 12 -35 12
-18 0 -23 -6 -23 -25z"/>
</g>
</svg>
