<?xml version="1.0" standalone="no"?>
<!DOCTYPE svg PUBLIC "-//W3C//DTD SVG 20010904//EN"
 "http://www.w3.org/TR/2001/REC-SVG-20010904/DTD/svg10.dtd">
<svg version="1.0" xmlns="http://www.w3.org/2000/svg"
 width="900.000000pt" height="700.000000pt" viewBox="0 0 900.000000 700.000000"
 preserveAspectRatio="xMidYMid meet">
<metadata>
Created by potrace 1.16, written by Peter Selinger 2001-2019
</metadata>
<g transform="translate(0.000000,700.000000) scale(0.100000,-0.100000)"
fill="#FFFF00" stroke="none">
<path d="M5908 6743 c-36 -207 -147 -478 -281 -681 -141 -215 -334 -408 -582
-583 -169 -118 -261 -233 -240 -298 12 -38 39 -43 79 -16 74 50 130 21 145
-76 11 -69 -1 -155 -32 -221 -53 -117 -233 -305 -350 -365 -34 -18 -58 -32
-54 -33 4 0 31 12 60 26 201 101 373 277 437 449 46 124 20 278 -52 309 -18 8
-45 17 -60 21 -16 3 -28 9 -28 14 0 13 76 77 198 167 120 88 245 205 350 324
197 225 343 528 400 830 21 109 37 230 30 230 -2 0 -11 -44 -20 -97z"/>
<path d="M3537 6643 c-163 -222 -234 -404 -253 -649 -19 -260 69 -492 296
-778 127 -160 144 -205 88 -230 -114 -48 -165 -228 -108 -379 43 -113 146
-211 257 -243 57 -17 141 -12 112 7 -8 5 -25 9 -39 9 -75 1 -191 94 -242 195
-39 76 -50 182 -24 237 26 54 71 82 131 81 27 -1 56 4 63 9 18 16 15 110 -7
160 -10 24 -49 80 -86 124 -83 98 -202 276 -250 371 -111 221 -144 475 -91
686 41 160 117 333 190 432 28 38 38 55 33 55 -3 0 -34 -39 -70 -87z"/>
<path d="M3192 6388 c-52 -159 -57 -197 -57 -428 0 -257 15 -334 96 -497 55
-112 95 -163 128 -163 30 0 27 23 -13 94 -83 151 -147 363 -166 556 -12 121
-2 257 31 418 11 57 19 106 16 108 -2 3 -18 -37 -35 -88z"/>
<path d="M6005 6433 c-32 -85 -142 -305 -204 -409 -113 -190 -275 -389 -378
-466 -60 -43 -84 -81 -65 -100 48 -48 279 199 424 452 71 123 184 365 214 458
35 108 41 150 9 65z"/>
<path d="M6073 6150 c-54 -108 -153 -264 -258 -405 -61 -83 -232 -259 -297
-308 -39 -29 -50 -63 -23 -73 47 -18 192 103 306 256 62 84 159 241 209 340
39 78 122 281 118 290 -2 3 -26 -41 -55 -100z"/>
<path d="M2977 6183 c-31 -109 -40 -204 -34 -353 9 -225 57 -398 148 -535 50
-75 78 -99 123 -111 24 -6 26 -3 26 23 0 18 -9 38 -21 49 -12 10 -38 42 -59
69 -82 110 -136 234 -167 378 -21 99 -24 369 -4 466 16 81 9 89 -12 14z"/>
<path d="M6088 5877 c-72 -139 -265 -377 -405 -498 -89 -77 -110 -110 -79
-122 70 -27 325 286 481 592 26 51 45 94 43 96 -2 2 -20 -29 -40 -68z"/>
<path d="M2794 5854 c-9 -35 3 -161 26 -265 40 -187 114 -355 212 -483 67 -87
102 -115 126 -99 26 16 15 42 -47 113 -174 197 -291 470 -291 681 0 78 -13
105 -26 53z"/>
<path d="M4267 5654 c6 -102 -8 -223 -39 -323 -23 -77 -85 -211 -97 -211 -5 0
-11 51 -13 113 -3 62 -11 124 -18 140 -13 28 -50 45 -69 32 -21 -12 -12 -51
13 -63 16 -7 29 -25 35 -49 21 -76 7 -243 -20 -243 -6 0 -17 16 -25 36 -21 50
-26 38 -13 -31 15 -84 6 -117 -44 -159 -40 -33 -42 -38 -43 -93 -1 -32 -11
-84 -23 -117 -12 -32 -20 -63 -18 -69 2 -6 23 7 48 30 78 71 127 100 198 118
101 25 138 67 87 100 -34 23 -72 5 -45 -22 15 -15 -21 -47 -72 -62 -23 -7 -62
-26 -89 -42 -26 -16 -50 -29 -54 -29 -13 0 -5 36 13 64 15 22 17 34 10 48 -26
49 17 85 161 133 60 20 114 43 122 52 11 14 10 15 -10 9 -41 -14 -23 15 73
111 88 89 155 175 172 220 3 10 -13 -7 -37 -37 -68 -86 -171 -182 -230 -214
l-53 -29 6 29 c3 16 16 61 31 101 14 40 32 109 41 155 17 91 21 315 6 363 -7
21 -8 2 -4 -61z"/>
<path d="M5988 5468 c-88 -116 -203 -230 -271 -268 -70 -39 -99 -80 -57 -80
80 0 206 127 353 358 26 39 45 72 42 72 -2 0 -32 -37 -67 -82z"/>
<path d="M2724 5435 c12 -68 54 -181 100 -273 83 -165 228 -343 293 -361 21
-6 39 -9 41 -6 13 13 -14 59 -56 92 -172 138 -306 327 -353 500 -24 86 -36
110 -25 48z"/>
<path d="M4626 5329 c-68 -100 -140 -180 -226 -251 -38 -32 -41 -36 -17 -28
65 23 155 4 205 -43 31 -29 55 -117 47 -170 -11 -63 -29 -101 -105 -218 -84
-128 -144 -251 -166 -339 -23 -93 -16 -256 16 -328 12 -29 24 -51 26 -50 1 2
-4 28 -12 58 -11 39 -14 92 -12 181 4 123 4 126 45 212 23 48 55 106 71 130
16 23 62 100 102 170 73 130 112 226 124 306 7 44 7 45 -13 27 -11 -10 -25
-15 -30 -11 -19 11 -12 46 20 101 38 68 33 93 -7 33 -17 -26 -39 -45 -52 -47
-32 -5 -28 18 18 102 46 84 54 123 11 56 -16 -25 -42 -57 -57 -72 -33 -31 -84
-53 -84 -37 0 14 35 80 66 126 26 38 107 193 101 193 -2 0 -34 -45 -71 -101z"/>
<path d="M2790 4983 c119 -212 281 -383 363 -383 61 0 39 33 -69 105 -106 71
-216 178 -273 268 -24 37 -46 67 -48 67 -3 0 10 -26 27 -57z"/>
<path d="M4341 4949 c-68 -34 -75 -47 -14 -29 21 6 54 10 73 8 32 -3 35 -6 38
-40 5 -59 -29 -108 -171 -251 -182 -182 -291 -349 -316 -482 -13 -70 2 -90 18
-22 24 109 109 251 212 357 24 25 93 90 153 144 128 118 177 185 184 255 3 40
1 52 -17 70 -31 31 -85 27 -160 -10z"/>
<path d="M5517 4861 c-2 -11 -20 -28 -38 -38 -29 -15 -58 -18 -192 -18 -137 0
-154 -2 -127 -13 49 -20 179 -35 256 -29 117 9 167 41 149 97 -8 25 -41 26
-48 1z"/>
<path d="M2900 4674 c0 -11 41 -59 93 -110 123 -120 255 -187 273 -139 9 23
-13 43 -65 59 -84 25 -150 65 -226 138 -55 51 -75 65 -75 52z"/>
<path d="M4442 4635 c-18 -19 -77 -63 -130 -98 -101 -68 -127 -91 -157 -142
-17 -27 -15 -26 26 11 92 86 104 63 24 -46 -132 -180 -182 -450 -112 -602 32
-72 44 -76 16 -6 -47 121 -31 264 47 418 25 47 97 155 160 239 100 134 172
247 162 256 -2 1 -18 -12 -36 -30z"/>
<path d="M4212 4141 c-43 -108 -51 -151 -52 -261 0 -203 78 -368 256 -540 81
-78 82 -73 3 20 -129 152 -189 295 -208 496 -11 106 1 231 28 310 30 83 8 64
-27 -25z"/>
<path d="M3668 4181 c-44 -35 -61 -136 -33 -196 13 -30 13 -29 14 28 1 63 14
97 35 97 11 0 13 -17 9 -84 -3 -46 -2 -97 2 -112 7 -25 10 -20 16 37 12 109
59 172 59 79 0 -69 26 -99 32 -38 4 43 27 47 70 10 40 -35 78 -56 78 -43 0 5
-15 18 -34 29 -38 22 -87 88 -112 151 -9 23 -25 46 -35 51 -29 16 -74 12 -101
-9z"/>
<path d="M4277 4078 c-42 -94 -6 -294 87 -473 55 -107 115 -184 279 -360 171
-183 249 -296 266 -384 9 -47 15 -61 24 -52 24 24 -43 193 -123 311 -47 69
-150 194 -266 320 -88 96 -177 227 -211 309 -37 92 -27 105 38 46 48 -43 161
-100 236 -120 33 -9 94 -14 143 -13 47 0 69 3 50 5 -19 2 -71 10 -115 19 -214
41 -357 178 -383 364 l-9 65 -16 -37z"/>
<path d="M3822 3864 c-38 -46 -57 -111 -47 -161 l8 -38 13 58 c10 41 23 67 48
92 l35 35 40 -27 c52 -34 52 -51 0 -59 -57 -9 -73 -37 -66 -115 4 -51 31 -118
42 -107 2 1 0 22 -5 46 -10 54 22 125 58 130 20 3 22 0 22 -51 0 -58 7 -87 20
-87 5 0 6 17 4 38 -3 20 0 44 6 52 9 13 14 11 33 -12 12 -14 38 -54 57 -89 45
-81 77 -119 100 -119 23 0 31 12 32 50 1 36 -8 48 -24 32 -46 -46 -111 40
-169 221 l-24 75 -66 36 c-37 20 -71 36 -77 36 -6 0 -24 -16 -40 -36z"/>
<path d="M4425 3651 c47 -93 169 -193 303 -247 69 -28 188 -54 240 -54 28 1
15 7 -55 25 -51 13 -134 45 -185 71 -79 41 -108 63 -194 151 -115 116 -150
134 -109 54z"/>
<path d="M3948 3394 c-78 -42 -78 -188 1 -275 29 -31 46 -41 87 -49 95 -17
150 15 216 126 18 29 36 54 39 54 11 0 35 -42 53 -95 26 -73 33 -296 12 -393
-17 -82 -63 -183 -141 -312 -253 -417 -315 -620 -263 -855 22 -99 70 -170 142
-207 33 -17 53 -20 115 -16 217 13 366 199 348 433 -6 89 -35 151 -92 204 -66
61 -140 64 -211 9 -98 -77 -77 -258 30 -258 37 0 41 18 12 49 -39 40 -35 85
10 127 30 29 43 34 82 34 76 0 115 -34 132 -117 15 -70 -1 -146 -48 -236 -59
-114 -128 -157 -249 -157 -163 0 -244 129 -230 369 8 143 61 288 182 496 190
328 247 543 205 775 -13 71 -64 229 -88 275 l-16 30 -8 -80 c-10 -108 -38
-163 -100 -193 -65 -33 -119 -24 -170 28 -33 32 -38 44 -38 83 0 25 3 52 6 61
7 18 41 21 63 7 19 -12 51 4 51 25 0 24 -56 74 -82 74 -13 -1 -35 -7 -50 -16z"/>
<path d="M4845 3238 c90 -72 259 -248 319 -332 163 -229 255 -488 256 -716 0
-174 -40 -272 -130 -317 -100 -51 -200 -8 -262 112 -26 49 -35 162 -18 224 13
49 67 111 96 111 37 0 85 -40 106 -87 24 -54 19 -105 -12 -138 -30 -32 -26
-55 10 -55 82 0 101 110 39 231 -60 118 -181 102 -239 -32 -44 -103 -34 -212
29 -310 80 -126 175 -160 289 -103 133 66 187 206 163 422 -22 196 -91 372
-220 566 -39 59 -71 112 -71 117 0 12 14 11 85 -5 76 -18 198 -30 170 -17 -11
5 -51 16 -90 25 -105 24 -213 83 -389 216 -88 66 -162 120 -165 120 -3 -1 12
-15 34 -32z"/>
<path d="M4292 3098 c-5 -61 -34 -153 -69 -221 -44 -83 -133 -168 -218 -208
-71 -34 -84 -35 -118 -9 -31 24 -51 18 -67 -20 -33 -81 61 -104 185 -45 89 42
168 133 238 276 49 99 81 229 61 249 -6 6 -11 -1 -12 -22z"/>
<path d="M4655 2948 c127 -265 185 -542 171 -818 -7 -141 -26 -243 -84 -445
-72 -250 -102 -432 -102 -613 0 -132 23 -222 75 -298 88 -127 206 -165 308
-98 102 67 121 269 35 375 -25 31 -83 59 -121 59 -84 0 -129 -52 -102 -116 23
-56 87 -68 66 -12 -7 18 -6 29 2 37 28 28 94 -2 125 -58 46 -81 36 -167 -23
-220 -31 -27 -43 -31 -91 -31 -30 0 -67 6 -82 14 -36 19 -106 93 -127 134 -62
123 -57 428 9 610 152 417 166 474 173 687 4 137 2 175 -16 261 -23 111 -66
245 -117 367 -31 73 -140 277 -149 277 -2 0 20 -51 50 -112z"/>
<path d="M5050 3009 c0 -4 12 -32 26 -63 50 -110 42 -294 -16 -359 -26 -29
-30 -30 -55 -19 -21 10 -31 10 -41 1 -20 -17 -17 -37 11 -64 31 -32 56 -31 94
0 71 61 95 227 52 362 -19 60 -70 161 -71 142z"/>
<path d="M4597 2922 c10 -29 16 -88 17 -152 1 -140 -9 -173 -132 -403 -45 -83
-54 -141 -30 -192 20 -45 76 -45 102 -1 9 14 7 21 -11 33 -32 21 -29 48 16
144 62 132 75 193 75 354 1 112 -3 152 -18 198 -10 32 -22 60 -26 62 -5 3 -1
-16 7 -43z"/>
<path d="M5350 2800 c0 -5 16 -16 35 -24 44 -19 188 -154 233 -220 67 -96 80
-158 37 -178 -30 -14 -31 -22 -5 -48 43 -43 100 -11 100 55 0 86 -149 266
-306 371 -84 56 -94 61 -94 44z"/>
<path d="M4180 2592 c-34 -64 -123 -151 -260 -254 -205 -154 -287 -247 -311
-354 -10 -46 -10 -56 5 -78 19 -29 47 -33 70 -10 12 11 13 20 6 34 -36 66 9
142 177 296 209 194 275 265 311 338 38 77 39 99 2 28z"/>
<path d="M4732 2425 c-4 -77 -32 -166 -84 -267 -45 -88 -53 -111 -53 -158 0
-70 23 -110 64 -110 31 0 45 12 55 47 6 18 3 22 -21 25 -28 3 -28 4 -26 68 0
41 14 110 37 190 29 97 36 138 33 185 -2 41 -4 47 -5 20z"/>
<path d="M5542 2330 c8 -14 24 -41 35 -60 59 -96 97 -292 74 -375 -17 -63 -33
-80 -75 -77 -29 2 -36 -1 -36 -15 0 -33 29 -63 61 -63 94 0 125 180 64 366
-24 71 -81 184 -112 219 -21 25 -23 26 -11 5z"/>
<path d="M3903 2060 c-81 -86 -179 -264 -223 -405 -27 -89 -31 -225 -7 -272
31 -59 96 -52 117 12 13 40 7 52 -30 57 -29 4 -38 28 -39 119 -2 136 76 340
178 467 58 71 60 80 4 22z"/>
<path d="M5461 1811 c-58 -159 -170 -243 -238 -180 -18 18 -25 20 -38 9 -17
-14 -20 -53 -5 -81 13 -23 77 -26 118 -5 68 36 163 170 182 258 6 28 9 53 7
55 -2 2 -14 -23 -26 -56z"/>
<path d="M4861 1694 c31 -112 113 -252 172 -295 72 -53 148 -32 131 35 -8 32
-32 41 -55 20 -36 -33 -109 19 -179 127 -21 33 -44 77 -51 97 -16 51 -31 64
-18 16z"/>
<path d="M3868 1623 c-20 -57 -17 -216 6 -283 33 -96 76 -172 131 -226 43 -44
65 -56 124 -74 100 -31 151 -16 151 42 0 68 -42 90 -72 38 -14 -25 -24 -30
-53 -30 -163 0 -324 304 -274 519 12 56 5 64 -13 14z"/>
<path d="M4816 1485 c4 -16 23 -64 43 -105 63 -131 190 -239 281 -240 66 0
102 47 63 83 -16 13 -21 14 -43 2 -36 -20 -60 -18 -117 11 -67 33 -163 135
-202 216 -19 38 -29 51 -25 33z"/>
<path d="M4552 1111 c-13 -29 -65 -95 -128 -162 -111 -118 -147 -175 -165
-259 -15 -70 8 -146 56 -189 42 -36 58 -38 86 -10 24 24 21 43 -10 47 -57 9
-66 151 -17 254 14 29 57 97 95 151 59 83 120 202 109 213 -2 2 -14 -19 -26
-45z"/>
<path d="M4587 829 c3 -35 -3 -80 -17 -129 -44 -159 -52 -209 -40 -266 19 -91
78 -150 180 -179 21 -6 17 0 -22 36 -30 29 -50 58 -57 84 -6 22 -12 132 -13
245 -3 165 -6 211 -19 234 l-16 28 4 -53z"/>
<path d="M4726 593 c13 -27 31 -84 40 -128 28 -135 55 -172 149 -200 72 -22
115 3 101 59 -8 34 -37 42 -57 15 -20 -27 -53 -21 -99 17 -36 31 -59 73 -90
169 -22 66 -47 114 -61 115 -3 0 5 -21 17 -47z"/>
<path d="M5121 586 c-9 -11 -9 -19 1 -36 12 -19 10 -24 -15 -46 -39 -34 -105
-33 -166 3 -43 25 -45 25 -26 4 54 -62 156 -79 227 -39 36 21 68 61 68 87 0
34 -67 54 -89 27z"/>
</g>
</svg>
